Coordinates
version=1
nRows=43
nColumns=12
inDegrees=yes

Units are S.I. units (second, meters, Newtons, ...)
Angles are in degrees

endheader
time	SC_y	SC_z	SC_x	AC_y	AC_z	AC_x	GH_y	GH_z	GH_yy	EL_x	PS_y
       0.0              -57.16          28.72          43.18          67.16         -7.512         -10.83          90.08         0.8484          21.38          16.28          77.97
   0.04326              -57.16          28.72          43.18          67.15         -7.512         -10.83          90.06         0.8518          21.36          16.28          77.96
   0.08651              -57.15          28.72          43.18          67.15         -7.513         -10.83          90.05         0.8553          21.33          16.28          77.96
    0.1298              -57.15          28.72          43.17          67.14         -7.514         -10.83          90.03         0.8591           21.3          16.28          77.95
     0.173              -57.14          28.72          43.17          67.14         -7.515         -10.83          90.01         0.8632          21.27          16.28          77.94
    0.2163              -57.13          28.72          43.17          67.13         -7.516         -10.83           90.0         0.8675          21.23          16.29          77.94
    0.2595              -57.13          28.72          43.17          67.12         -7.517         -10.83          89.98         0.8721           21.2          16.29          77.93
    0.3028              -57.12          28.72          43.17          67.12         -7.518         -10.83          89.96          0.877          21.16          16.29          77.92
     0.346              -57.11          28.72          43.17          67.11         -7.519         -10.82          89.93         0.8822          21.12           16.3          77.91
    0.3893               -57.1          28.72          43.17           67.1          -7.52         -10.82          89.91         0.8879          21.08           16.3           77.9
    0.4326              -57.09          28.72          43.17          67.09         -7.521         -10.82          89.89          0.894          21.03           16.3          77.89
    0.4758              -57.08          28.72          43.16          67.08         -7.522         -10.82          89.86         0.9005          20.98          16.31          77.87
    0.5191              -57.07          28.72          43.16          67.07         -7.524         -10.82          89.83         0.9075          20.93          16.31          77.86
    0.5623              -57.06          28.72          43.16          67.06         -7.526         -10.82           89.8         0.9151          20.87          16.32          77.85
    0.6056              -57.05          28.72          43.16          67.05         -7.527         -10.81          89.76         0.9234           20.8          16.32          77.83
    0.6488              -57.03          28.72          43.15          67.03         -7.529         -10.81          89.73         0.9323          20.73          16.33          77.82
    0.6921              -57.02          28.72          43.15          67.02         -7.531         -10.81          89.69          0.942          20.66          16.33           77.8
    0.7354               -57.0          28.73          43.15           67.0         -7.533         -10.81          89.64         0.9525          20.58          16.34          77.78
    0.7786              -56.98          28.73          43.15          66.99         -7.536          -10.8          89.59         0.9641          20.49          16.34          77.76
    0.8219              -56.96          28.73          43.14          66.97         -7.538          -10.8          89.54         0.9767          20.39          16.35          77.74
    0.8651              -56.94          28.73          43.14          66.95         -7.541          -10.8          89.48         0.9906          20.28          16.36          77.71
    0.9084              -56.92          28.73          43.14          66.93         -7.544         -10.79          89.42          1.006          20.17          16.37          77.68
    0.9516              -56.89          28.73          43.13           66.9         -7.548         -10.79          89.35          1.023          20.04          16.38          77.65
    0.9949              -56.86          28.73          43.13          66.87         -7.552         -10.79          89.27          1.041          19.89          16.39          77.62
     1.038              -56.83          28.73          43.12          66.84         -7.556         -10.78          89.19          1.062          19.73           16.4          77.58
     1.081               -56.8          28.73          43.11          66.81         -7.561         -10.77          89.09          1.085          19.55          16.42          77.54
     1.125              -56.76          28.73          43.11          66.77         -7.566         -10.77          88.98          1.111          19.35          16.43          77.49
     1.168              -56.71          28.74           43.1          66.72         -7.572         -10.76          88.86           1.14          19.13          16.45          77.44
     1.211              -56.66          28.74          43.09          66.68         -7.579         -10.75          88.72          1.173          18.87          16.47          77.38
     1.254               -56.6          28.74          43.08          66.62         -7.587         -10.74          88.57          1.211          18.58          16.49          77.31
     1.298              -56.53          28.74          43.07          66.56         -7.596         -10.73          88.39          1.254          18.25          16.52          77.23
     1.341              -56.46          28.74          43.05          66.48         -7.606         -10.72          88.19          1.303          17.87          16.55          77.14
     1.384              -56.37          28.75          43.04           66.4         -7.618         -10.71          87.95          1.359          17.44          16.58          77.04
     1.427              -56.27          28.75          43.02           66.3         -7.632         -10.69          87.68          1.425          16.93          16.62          76.92
     1.471              -56.15          28.76           43.0          66.19         -7.648         -10.67          87.36          1.502          16.33          16.67          76.77
     1.514              -56.01          28.76          42.98          66.05         -7.667         -10.65          86.98          1.593          15.63          16.72          76.61
     1.557              -55.84          28.77          42.95          65.89         -7.689         -10.63          86.53          1.701           14.8          16.78          76.41
       1.6              -55.64          28.77          42.91           65.7         -7.716         -10.59          85.99           1.83           13.8          16.86          76.18
     1.644               -55.4          28.78          42.87          65.46         -7.748         -10.56          85.34          1.987          12.59          16.96          75.89
     1.687               -55.1          28.79          42.82          65.18         -7.788         -10.51          84.54          2.178          11.12          17.07          75.54
      1.73              -54.74          28.81          42.75          64.83         -7.837         -10.45          83.56          2.414          9.298          17.21          75.11
     1.774              -54.28          28.82          42.67          64.39         -7.899         -10.38          82.34          2.708          7.027          17.39          74.57
     1.817               -53.7          28.84          42.57          63.84         -7.976         -10.29           80.8          3.079          4.166          17.61          73.89
